# xmcd
#
# Track frame offsets: 
#        150
#        25256
#        43694
#        64445
#        82440
#        99881
#        120318
#        140169
#        151011
#        168730
#        185969
#        197718
#        211789
#        237724
#
# Disc length: 3483 seconds
#
# Revision: 1
# Processed by: cddbd v1.5.2PL0 Copyright (c) Steve Scherf et al.
# Submitted via: ExactAudioCopy v1.0b1
#
DISCID=d00d990e
DTITLE=群星 - 夜阑人静
DYEAR=2011
DGENRE=音乐
TTITLE0=01. 小桃紅 
TTITLE1=02. 依稀  
TTITLE2=03. 花間蝶 
TTITLE3=04. 陌頭柳色
TTITLE4=05. 月兒彎彎照九州    
TTITLE5=06. 春風得意  
TTITLE6=07. 夜闌人靜  
TTITLE7=08. 綉荷包 
TTITLE8=09. 龍飛鳳舞 
TTITLE9=10. 送情郎 
TTITLE10=11. 櫻桃熟了    
TTITLE11=12. 明月千里寄相思
TTITLE12=13. Pavanne  
TTITLE13=14. Farewell
EXTD=
EXTT0=
EXTT1=
EXTT2=
EXTT3=
EXTT4=
EXTT5=
EXTT6=
EXTT7=
EXTT8=
EXTT9=
EXTT10=
EXTT11=
EXTT12=
EXTT13=
PLAYORDER=
